# xmcd
#
# Track frame offsets: 
#        150
#        14819
#        27768
#        41005
#        53798
#        66034
#        78531
#        91197
#        102558
#        114430
#        129875
#        142070
#        154225
#        168854
#        181792
#        196449
#        213050
#        225258
#
# Disc length: 3184 seconds
#
# Revision: 1
# Processed by: cddbd v1.5.2PL0 Copyright (c) Steve Scherf et al.
# Submitted via: ExactAudioCopy v0.95b2
#
DISCID=e80c6e12
DTITLE=Walter Davis - The Essential [CD2]
DYEAR=2001
DGENRE=Blues
TTITLE0=Root Man Blues
TTITLE1=It's Been So Long
TTITLE2=Frisco Blues
TTITLE3=M. and O. Blues No. 3
TTITLE4=You Don't Smell Right
TTITLE5=You Are The One I Love
TTITLE6=Stop That Train In Harlem
TTITLE7=What May Your Trouble Be
TTITLE8=I Just Can't Help It
TTITLE9=I Think You Need A Shot
TTITLE10=Call Your Name
TTITLE11=Poor Grinder Blues
TTITLE12=Blue Ghost Blues
TTITLE13=The Only Woman
TTITLE14=Jacksonville - Part 1
TTITLE15=Jacksonville - Part 2
TTITLE16=Oil Field Blues
TTITLE17=New B. and O. Blues
EXTD=
EXTT0=
EXTT1=
EXTT2=
EXTT3=
EXTT4=
EXTT5=
EXTT6=
EXTT7=
EXTT8=
EXTT9=
EXTT10=
EXTT11=
EXTT12=
EXTT13=
EXTT14=
EXTT15=
EXTT16=
EXTT17=
PLAYORDER=
